<?xml version="1.0" encoding="utf-8"?>
<svg xmlns="http://www.w3.org/2000/svg"
	xmlns:xlink="http://www.w3.org/1999/xlink"
	width="20px" height="10px" viewBox="0 0 20 10">
<filter filterUnits="objectBoundingBox" x="0.00" y="0.00" width="100.00" height="100.00" id="filter0">
<feFlood flood-color="rgb(247,247,243)" result="coFloodOut1"/>
<feComposite in="coFloodOut1" in2="SourceAlpha" operator="in" result="coOverlay1"/>
<feBlend in="coOverlay1" in2="SourceGraphic" mode="normal" result="colorOverlay1"/>
</filter>
<path fillRule="evenodd" d="M 19.86 4.66C 19.86 4.66 19.86 4.66 19.86 4.66 19.86 4.66 15.32 0.13 15.32 0.13 15.16-0.06 14.87-0.08 14.68 0.08 14.49 0.25 14.46 0.53 14.63 0.72 14.64 0.74 14.66 0.76 14.68 0.77 14.68 0.77 18.45 4.53 18.45 4.53 18.45 4.53 0.45 4.53 0.45 4.53 0.2 4.53-0 4.73-0 4.98-0 5.23 0.2 5.44 0.45 5.44 0.45 5.44 18.45 5.44 18.45 5.44 18.45 5.44 14.68 9.19 14.68 9.19 14.49 9.35 14.46 9.64 14.63 9.83 14.79 10.02 15.08 10.04 15.27 9.88 15.29 9.86 15.3 9.84 15.32 9.83 15.32 9.83 19.86 5.3 19.86 5.3 20.04 5.12 20.04 4.84 19.86 4.66Z" fill="rgb(0,0,0)" filter="url(#filter0)"/></svg>