<?xml version="1.0" encoding="utf-8"?>
<svg xmlns="http://www.w3.org/2000/svg"
	xmlns:xlink="http://www.w3.org/1999/xlink"
	width="22px" height="18px" viewBox="0 0 22 18">
<filter filterUnits="objectBoundingBox" x="0.00" y="0.00" width="100.00" height="100.00" id="filter0">
<feFlood flood-color="rgb(109,119,73)" result="coFloodOut1"/>
<feComposite in="coFloodOut1" in2="SourceAlpha" operator="in" result="coOverlay1"/>
<feBlend in="coOverlay1" in2="SourceGraphic" mode="normal" result="colorOverlay1"/>
</filter>
<path fillRule="evenodd" d="M 21.39 0.33C 20.52 0.85 19.55 1.23 18.53 1.44 17.7 0.55 16.53-0 15.23-0 12.74-0 10.72 2.04 10.72 4.54 10.72 4.9 10.76 5.25 10.83 5.58 7.08 5.39 3.76 3.58 1.53 0.83 1.14 1.5 0.92 2.28 0.92 3.11 0.92 4.69 1.72 6.08 2.93 6.9 2.19 6.87 1.49 6.67 0.89 6.33 0.89 6.33 0.89 6.38 0.89 6.38 0.89 8.59 2.44 10.42 4.5 10.84 4.13 10.94 3.73 11 3.32 11 3.02 11 2.74 10.97 2.47 10.92 3.04 12.72 4.71 14.04 6.68 14.08 5.14 15.29 3.19 16.02 1.08 16.02 0.71 16.02 0.35 16-0 15.96 2 17.25 4.37 18 6.92 18 15.22 18 19.76 11.07 19.76 5.07 19.76 5.07 19.74 4.48 19.74 4.48 20.63 3.84 21.4 3.04 22 2.13 21.19 2.49 20.32 2.74 19.41 2.85 20.34 2.28 21.05 1.39 21.39 0.33Z" fill="rgb(0,0,0)" filter="url(#filter0)"/></svg>